<svg width="15" height="12" viewBox="0 0 15 12" fill="none" xmlns="http://www.w3.org/2000/svg">
<path d="M13.5937 0.375H1.40626C0.6308 0.375 0 1.0058 0 1.78126V10.2188C0 10.9942 0.6308 11.625 1.40626 11.625H13.5937C14.3692 11.625 15 10.9942 15 10.2188V1.78126C15 1.0058 14.3692 0.375 13.5937 0.375ZM13.5937 1.3125C13.6574 1.3125 13.718 1.32571 13.7734 1.34879L7.5 6.78599L1.22656 1.34879C1.28346 1.32493 1.34453 1.3126 1.40623 1.3125H13.5937ZM13.5937 10.6875H1.40626C1.14763 10.6875 0.937496 10.4774 0.937496 10.2187V2.33926L7.19283 7.76056C7.2812 7.83699 7.3906 7.875 7.5 7.875C7.6094 7.875 7.7188 7.83702 7.80717 7.76056L14.0625 2.33926V10.2188C14.0625 10.4774 13.8524 10.6875 13.5937 10.6875Z" fill="#19517E"/>
</svg>
