<svg width="20" height="11" viewBox="0 0 20 11" fill="none" xmlns="http://www.w3.org/2000/svg">
<path d="M19.8678 5.18115L15.3225 0.658108C15.1592 0.468385 14.8722 0.446268 14.6816 0.608783C14.4909 0.771258 14.4687 1.0568 14.632 1.24652C14.6472 1.2642 14.6638 1.28072 14.6816 1.29584L18.4497 5.04997H0.454523C0.203512 5.04997 0 5.25248 0 5.50229C0 5.75211 0.203512 5.95458 0.454523 5.95458H18.4497L14.6816 9.70416C14.4909 9.86663 14.4687 10.1522 14.632 10.3419C14.7953 10.5316 15.0822 10.5537 15.2729 10.3912C15.2907 10.3761 15.3073 10.3596 15.3225 10.3419L19.8678 5.81885C20.0441 5.6425 20.0441 5.35758 19.8678 5.18115Z" fill="white"/>
</svg>
