<svg width="26" height="26" viewBox="0 0 26 26" fill="none" xmlns="http://www.w3.org/2000/svg">
<path d="M17.6733 0.777832H8.33555C4.17022 0.777832 0.787109 4.16094 0.787109 8.32628V17.6641C0.787109 21.8294 4.17022 25.2125 8.33555 25.2125H17.6733C21.8387 25.2125 25.2218 21.8294 25.2218 17.6641V8.32628C25.2218 4.16094 21.8387 0.777832 17.6733 0.777832ZM22.4938 17.6738C22.4938 20.3334 20.3329 22.5041 17.6636 22.5041H8.32578C5.66622 22.5041 3.49555 20.3432 3.49555 17.6738V8.33605C3.49555 5.6765 5.65644 3.50583 8.32578 3.50583H17.6636C20.3231 3.50583 22.4938 5.66672 22.4938 8.33605V17.6738Z" fill="url(#paint0_linear_279_12440)"/>
<path d="M13 6.75195C9.55817 6.75195 6.75195 9.55817 6.75195 13C6.75195 16.4417 9.55817 19.248 13 19.248C16.4417 19.248 19.248 16.4417 19.248 13C19.248 9.55817 16.4417 6.75195 13 6.75195ZM13 16.7937C10.9075 16.7937 9.20617 15.0924 9.20617 13C9.20617 10.9075 10.9075 9.20617 13 9.20617C15.0924 9.20617 16.7937 10.9075 16.7937 13C16.7937 15.0924 15.0924 16.7937 13 16.7937Z" fill="url(#paint1_linear_279_12440)"/>
<path d="M19.7236 7.43725C20.2992 7.3435 20.6898 6.80087 20.5961 6.22524C20.5023 5.64961 19.9597 5.25897 19.3841 5.35272C18.8084 5.44646 18.4178 5.9891 18.5115 6.56473C18.6053 7.14036 19.1479 7.531 19.7236 7.43725Z" fill="url(#paint2_linear_279_12440)"/>
<defs>
<linearGradient id="paint0_linear_279_12440" x1="3.70184" y1="22.2978" x2="21.064" y2="4.93558" gradientUnits="userSpaceOnUse">
<stop stop-color="#FEE411"/>
<stop offset="0.052" stop-color="#FEDB16"/>
<stop offset="0.138" stop-color="#FEC125"/>
<stop offset="0.248" stop-color="#FE983D"/>
<stop offset="0.376" stop-color="#FE5F5E"/>
<stop offset="0.5" stop-color="#FE2181"/>
<stop offset="1" stop-color="#9000DC"/>
</linearGradient>
<linearGradient id="paint1_linear_279_12440" x1="8.24256" y1="17.7573" x2="17.1217" y2="8.87824" gradientUnits="userSpaceOnUse">
<stop stop-color="#FEE411"/>
<stop offset="0.052" stop-color="#FEDB16"/>
<stop offset="0.138" stop-color="#FEC125"/>
<stop offset="0.248" stop-color="#FE983D"/>
<stop offset="0.376" stop-color="#FE5F5E"/>
<stop offset="0.5" stop-color="#FE2181"/>
<stop offset="1" stop-color="#9000DC"/>
</linearGradient>
<linearGradient id="paint2_linear_279_12440" x1="18.8894" y1="7.31784" x2="20.1294" y2="5.59544" gradientUnits="userSpaceOnUse">
<stop stop-color="#FEE411"/>
<stop offset="0.052" stop-color="#FEDB16"/>
<stop offset="0.138" stop-color="#FEC125"/>
<stop offset="0.248" stop-color="#FE983D"/>
<stop offset="0.376" stop-color="#FE5F5E"/>
<stop offset="0.5" stop-color="#FE2181"/>
<stop offset="1" stop-color="#9000DC"/>
</linearGradient>
</defs>
</svg>
