<svg width="35" height="34" viewBox="0 0 35 34" fill="none" xmlns="http://www.w3.org/2000/svg">
<path d="M23.8409 8.24869L13.9791 9.11149C13.7183 9.13888 13.4787 9.26759 13.3119 9.46991C13.1451 9.67223 13.0645 9.93196 13.0873 10.1932C13.1102 10.4544 13.2347 10.6962 13.4341 10.8664C13.6335 11.0367 13.8918 11.1219 14.1533 11.1036L21.6103 10.4512L10.3062 23.9228C10.1358 24.126 10.053 24.3886 10.0761 24.6528C10.0992 24.917 10.2263 25.1612 10.4295 25.3317C10.6327 25.5021 10.8952 25.5849 11.1594 25.5618C11.4236 25.5387 11.6678 25.4116 11.8383 25.2084L23.1424 11.7368L23.7948 19.1937C23.8041 19.3262 23.8396 19.4554 23.8994 19.574C23.9592 19.6926 24.0419 19.7981 24.1429 19.8843C24.2439 19.9705 24.361 20.0358 24.4875 20.0763C24.614 20.1167 24.7472 20.1316 24.8795 20.1201C25.0118 20.1085 25.1404 20.0707 25.2579 20.0089C25.3755 19.947 25.4795 19.8624 25.5639 19.76C25.6484 19.6575 25.7116 19.5393 25.7499 19.4121C25.7882 19.285 25.8007 19.1515 25.7869 19.0194L24.9241 9.15759C24.9009 8.89344 24.7738 8.6493 24.5707 8.47885C24.3676 8.30841 24.105 8.22562 23.8409 8.24869Z" fill="#19517E"/>
</svg>
