<svg width="15" height="16" viewBox="0 0 15 16" fill="none" xmlns="http://www.w3.org/2000/svg">
<g clip-path="url(#clip0_1_4258)">
<path d="M14.0789 11.0909C14.0541 11.0703 11.2467 9.06125 10.485 9.19297C10.1189 9.25766 9.90938 9.50703 9.48984 10.0072C9.42234 10.0878 9.25969 10.2805 9.13406 10.4178C8.8689 10.3314 8.61027 10.2262 8.36016 10.1028C7.06899 9.47422 6.02578 8.43101 5.39719 7.13984C5.27384 6.88973 5.16857 6.6311 5.08219 6.36594C5.22 6.23984 5.41313 6.07719 5.49563 6.00781C5.99297 5.59062 6.24234 5.38109 6.30703 5.01453C6.43969 4.25562 4.42969 1.44594 4.40906 1.42063C4.31753 1.29081 4.19831 1.18293 4.06002 1.10479C3.92172 1.02664 3.76781 0.980181 3.60938 0.96875C2.79469 0.96875 0.46875 3.98563 0.46875 4.49422C0.46875 4.52375 0.511406 7.52562 4.21312 11.2911C7.97438 14.9886 10.9762 15.0312 11.0058 15.0312C11.5144 15.0312 14.5312 12.7053 14.5312 11.8906C14.5198 11.7321 14.4733 11.5782 14.3951 11.4399C14.3169 11.3016 14.2089 11.1824 14.0789 11.0909ZM10.9542 14.0909C10.5445 14.0572 8.02547 13.7248 4.87594 10.6306C1.76578 7.46422 1.44187 4.93813 1.40953 4.54672C2.02396 3.58233 2.766 2.70548 3.61547 1.94C3.63422 1.95875 3.65906 1.98688 3.69094 2.02344C4.34242 2.91276 4.90363 3.86481 5.36625 4.86547C5.21581 5.01682 5.0568 5.15939 4.89 5.2925C4.63134 5.48959 4.39382 5.71297 4.18125 5.95906L4.06734 6.11844L4.10109 6.31109C4.20029 6.74081 4.35223 7.15662 4.55344 7.54906C5.27432 9.02939 6.47051 10.2254 7.95094 10.9461C8.3433 11.1476 8.75913 11.2997 9.18891 11.3989L9.38156 11.4327L9.54094 11.3188C9.78796 11.1052 10.0123 10.8668 10.2103 10.6072C10.357 10.4319 10.5534 10.198 10.6275 10.1319C11.631 10.594 12.5855 11.1559 13.4766 11.8091C13.5155 11.8419 13.5427 11.8672 13.5609 11.8836C12.7956 12.7333 11.9187 13.4755 10.9542 14.09V14.0909Z" fill="#024880"/>
</g>
<defs>
<clipPath id="clip0_1_4258">
<rect width="15" height="15" fill="white" transform="translate(0 0.5)"/>
</clipPath>
</defs>
</svg>
